<svg width="51" height="52" viewBox="0 0 51 52" fill="none" xmlns="http://www.w3.org/2000/svg">
<path d="M9.96899 37.3631C9.95677 37.2703 9.93232 37.179 9.89718 37.0925C9.65119 36.4916 8.89793 36.144 8.10494 36.2667C7.64046 36.3391 7.22639 36.5561 6.94068 36.8786C6.67176 37.1806 6.54953 37.5392 6.59537 37.89V37.8932C6.60759 37.986 6.63204 38.0756 6.66718 38.1606C6.91317 38.763 7.66796 39.1091 8.45789 38.9864C9.39144 38.8448 10.0698 38.1165 9.96899 37.3631Z" fill="#162B5C"/>
<path d="M12.0437 38.7173C12.0314 38.6245 12.007 38.5333 11.9718 38.4468C11.7564 37.9214 11.1529 37.5895 10.4745 37.5958C10.4271 38.4578 9.71206 39.227 8.72656 39.4582C8.73267 39.4771 8.7342 39.496 8.74184 39.5148C8.98631 40.1157 9.74262 40.4634 10.5341 40.3407C11.4676 40.1975 12.143 39.4692 12.0437 38.7173Z" fill="#162B5C"/>
<path d="M13.11 36.7078C13.0978 36.615 13.0733 36.5238 13.0382 36.4372C12.7937 35.8364 12.0374 35.4887 11.2459 35.6114C10.7814 35.6838 10.3689 35.9009 10.0817 36.2233C10.0496 36.2611 10.0251 36.3004 9.99609 36.3381C10.1535 36.497 10.2803 36.6811 10.3643 36.8887C10.3888 36.9485 10.3979 37.0145 10.4147 37.0775C11.2368 37.0539 11.9915 37.4329 12.346 38.0574C12.8625 37.7491 13.1803 37.2363 13.11 36.7078Z" fill="#162B5C"/>
<path d="M34.4286 17.4629C33.6433 16.7535 32.5126 16.7692 31.8633 16.9752C32.288 16.4373 33.2781 15.9968 33.57 15.9434C33.7915 16.0299 34.4286 16.7031 34.4286 17.4629Z" fill="#162B5C"/>
<path d="M36.9377 14.5246C36.4213 11.6775 29.9934 13.5635 26.7573 12.3555C26.6946 13.186 27.7535 14.5152 28.7665 15.0075C27.0354 16.5538 25.4815 19.6683 25.1683 23.475C24.855 19.6683 23.3027 16.5538 21.5715 15.0075C22.5846 14.5152 23.6434 13.186 23.5808 12.3555C20.3446 13.5651 13.9167 11.6791 13.3988 14.5246C13.2903 15.1271 13.5714 16.0457 13.8755 16.31C13.9305 16.1196 14.2147 15.4952 15.11 15.3536C19.6372 14.6489 23.4188 21.8343 20.0054 24.7381C19.9535 24.7821 19.9825 24.8639 20.0528 24.8639H30.2837C30.354 24.8639 30.383 24.7821 30.3311 24.7381C26.9177 21.8327 30.6978 14.6489 35.2265 15.3536C36.1234 15.4936 36.406 16.1181 36.461 16.3084C36.7651 16.0457 37.0478 15.1271 36.9377 14.5246Z" fill="#162B5C"/>
<path d="M38.0389 7.9915C37.9579 7.72252 40.6119 7.71622 40.6119 9.42607C40.6119 10.5728 39.0244 11.1155 39.0244 12.3062C39.0244 12.8599 39.6034 13.2673 39.7807 13.2673C39.3712 11.3577 41.0626 12.3566 41.5195 12.7136C40.6119 10.1449 42.6547 10.1607 42.4545 8.98248C42.314 8.15981 40.5385 8.40834 39.8953 7.9915C38.7555 7.25219 37.4063 4.37676 36.5171 7.25219C38.1749 8.83619 37.2107 11.1689 35.1053 11.1689C35.1053 11.1689 35.0931 11.5103 35.1129 11.5386C37.6233 11.4112 38.4988 9.51258 38.0389 7.9915Z" fill="#162B5C"/>
<path d="M8.75738 12.7136C9.21422 12.3566 10.9056 11.3561 10.4977 13.2673C10.6749 13.2673 11.254 12.8615 11.254 12.3062C11.254 11.117 9.66648 10.5728 9.66648 9.42607C9.66648 7.71465 12.322 7.72252 12.2395 7.9915C11.7811 9.51258 12.6566 11.4112 15.1654 11.5386C15.1838 11.5119 15.1715 11.1689 15.1715 11.1689C13.0676 11.1689 12.1035 8.83619 13.7598 7.25219C12.8705 4.37676 11.5214 7.25219 10.3815 7.9915C9.73829 8.40834 7.96286 8.15981 7.8223 8.98248C7.62367 10.1607 9.66496 10.1449 8.75738 12.7136Z" fill="#162B5C"/>
<path d="M15.8867 17.4629C16.6736 16.7535 17.8042 16.7692 18.4521 16.9752C18.0288 16.4373 17.0372 15.9968 16.7469 15.9434C16.5239 16.0299 15.8867 16.7031 15.8867 17.4629Z" fill="#162B5C"/>
<path d="M26.3618 1.53681L25.1379 0L23.9141 1.53681L25.1379 3.15385L26.3633 1.53681H26.3618Z" fill="#162B5C"/>
<path d="M33.3536 6.18345L32.4827 5.0918L31.6133 6.18345L32.4827 7.25152L33.3536 6.18345Z" fill="#162B5C"/>
<path d="M18.6661 6.18345L17.7952 5.0918L16.9258 6.18345L17.7952 7.25152L18.6661 6.18345Z" fill="#162B5C"/>
<path d="M16.1753 11.5366H19.4221C22.1525 11.5366 23.381 9.81101 23.7522 8.31509H26.53C26.9013 9.81101 28.1282 11.5366 30.8601 11.5366H34.1069C34.1069 11.5366 34.6753 10.7438 34.8174 10.3505C35.3307 8.93643 34.6753 8.27734 33.7188 8.27734L32.4827 9.43035L31.2466 8.27734C30.2902 8.27734 29.6347 8.93643 30.1481 10.3505C30.2138 10.5314 30.3696 10.7973 30.5178 11.0301C29.3658 10.8665 27.8944 10.0548 27.572 8.31509C27.572 8.31509 28.4231 6.923 28.637 6.35986C29.404 4.33385 28.4246 3.50488 26.9899 3.50488L25.1381 5.74482L23.2862 3.50488C21.853 3.50488 20.8721 4.33385 21.6407 6.35986C21.853 6.923 22.7056 8.31667 22.7056 8.31667C22.3817 10.0564 20.9119 10.8681 19.7598 11.0317C19.9095 10.7988 20.0654 10.533 20.1296 10.3521C20.6414 8.938 19.9875 8.27892 19.031 8.27892L17.7949 9.43192L16.5588 8.27892C15.6024 8.27892 14.9484 8.938 15.4603 10.3521C15.6069 10.7438 16.1753 11.5366 16.1753 11.5366Z" fill="#162B5C"/>
<path d="M49.7502 21.9011C49.1237 22.2282 45.446 24.001 40.7355 23.3451C40.7844 23.1138 40.8256 22.881 40.8592 22.6466C43.9945 22.2613 46.5431 21.7139 48.1672 20.7827C50.0191 19.7225 50.8273 17.1899 49.8938 15.3055C49.8693 15.2583 49.8021 15.2489 49.7685 15.2898C49.2566 15.8969 46.0373 19.5022 40.9647 20.6238C40.9524 20.3532 40.928 20.0842 40.8929 19.8153C43.3559 18.3775 45.7623 16.7196 46.9067 15.2032C48.6378 12.9114 48.4789 9.98878 46.8318 8.49915C46.815 8.48342 46.7921 8.47713 46.7692 8.48028C46.7463 8.48342 46.7264 8.49601 46.7142 8.51646C46.1932 9.40205 41.3146 17.5203 35.9577 21.0249C35.892 21.0674 35.8263 21.1098 35.7606 21.1507C35.6078 21.2467 35.591 21.4527 35.7209 21.5739C36.3382 22.1496 36.7217 22.9518 36.7217 23.8421C36.7217 25.3899 35.562 26.6767 34.031 26.9566C33.2518 27.1124 32.1288 27.0668 31.0485 26.7003C30.9996 26.6845 30.9492 26.7176 30.9492 26.7679V31.6709C30.9492 31.7496 31.0653 31.77 31.0928 31.6929C31.7483 29.9029 33.7132 29.5238 34.5719 29.5238C34.8805 31.4365 35.4336 33.0205 36.1502 33.8731C37.3175 35.2589 39.2259 35.24 40.0525 34.2805C40.0663 34.2648 40.0724 34.2428 40.0678 34.2223C40.0647 34.2019 40.051 34.183 40.0326 34.1735C39.5468 33.8857 36.766 32.1286 36.2098 29.2485C36.4298 29.1698 36.6437 29.0818 36.85 28.9779C37.7469 30.5069 39.0533 31.8691 40.106 32.3898C41.8723 33.2628 43.4903 32.8381 44.2069 31.5608C44.2329 31.5152 44.2008 31.4601 44.1488 31.4554C43.0564 31.3657 39.7026 30.3763 38.274 27.9649C38.4375 27.8108 38.5979 27.6488 38.7461 27.4773C40.2404 28.6476 42.3535 29.6842 43.8662 29.895C45.6355 30.1435 47.6416 29.5615 47.6905 27.4427C47.6921 27.4002 47.6539 27.3656 47.6111 27.3688C46.9816 27.4081 42.8165 27.5937 39.8478 25.8398C39.9501 25.6385 40.0464 25.4324 40.1365 25.2232C40.1365 25.2232 44.6225 26.3149 46.7463 25.9531C48.8579 25.5944 50.0955 23.9727 49.8556 21.9577C49.8525 21.9058 49.7945 21.8759 49.7502 21.9011Z" fill="#162B5C"/>
<path d="M10.1432 25.2229C10.2318 25.4321 10.3296 25.6366 10.4319 25.8395C7.46474 27.5934 3.29966 27.4078 2.66863 27.3685C2.62432 27.3653 2.58765 27.4015 2.58765 27.444C2.63654 29.5628 4.64116 30.1432 6.41201 29.8963C7.92464 29.6855 10.0377 28.6489 11.532 27.4786C11.6818 27.65 11.8407 27.8105 12.0042 27.9662C10.5756 30.3776 7.2218 31.367 6.12934 31.4567C6.07587 31.4614 6.04531 31.518 6.07128 31.5621C6.7894 32.8393 8.40593 33.2641 10.1737 32.391C11.2249 31.8704 12.5313 30.5082 13.4282 28.9792C13.6344 29.083 13.8483 29.1711 14.0668 29.2498C13.5107 32.1299 10.7299 33.887 10.244 34.1748C10.2257 34.1843 10.2135 34.2031 10.2104 34.2236C10.2073 34.244 10.2119 34.2661 10.2257 34.2818C11.0523 35.2397 12.9606 35.2586 14.1295 33.8744C14.8476 33.0218 15.3976 31.4378 15.7078 29.5251C16.568 29.5251 18.5314 29.9057 19.1869 31.6942C19.2159 31.7697 19.332 31.7508 19.332 31.6706V26.7676C19.332 26.7173 19.2816 26.6842 19.2327 26.7C18.154 27.068 17.0295 27.1121 16.2518 26.9564C14.7193 26.6779 13.5596 25.3897 13.5596 23.8418C13.5596 22.9515 13.9446 22.1493 14.5604 21.572C14.6918 21.4509 14.6749 21.2448 14.5222 21.1489C14.4549 21.108 14.3892 21.0655 14.322 21.023C8.96973 17.5215 4.09417 9.40806 3.56857 8.51774C3.54412 8.47685 3.48606 8.46741 3.44939 8.50044C1.80383 9.99164 1.64493 12.9127 3.37605 15.203C4.52198 16.7178 6.92691 18.3757 9.38991 19.815C9.35476 20.084 9.33185 20.3529 9.3181 20.6235C4.25002 19.5019 1.03224 15.9029 0.515802 15.291C0.48066 15.2502 0.411904 15.258 0.388986 15.3068C-0.54304 17.1912 0.265225 19.7222 2.11552 20.7824C3.73969 21.712 6.28825 22.2594 9.42352 22.6464C9.45713 22.8807 9.49839 23.1135 9.54728 23.3448C4.84132 24.0007 1.16669 22.2311 0.534137 21.9008C0.486772 21.8756 0.430239 21.9071 0.424128 21.9574C0.185773 23.974 1.42185 25.5926 3.53343 25.9512C5.65875 26.313 10.1432 25.2213 10.1432 25.2229Z" fill="#162B5C"/>
<path d="M27.2674 31.8259C27.8495 31.6041 28.7632 31.7834 28.7311 32.6486C28.7235 32.8452 28.9908 32.8452 29.0107 32.6439C29.1849 31.3477 28.3338 30.9749 27.4446 31.1259C27.3346 30.6808 27.2429 30.2907 27.1405 29.9053C27.058 29.5938 27.0275 29.0071 27.3789 29.0071C27.5684 29.0071 27.492 29.5529 27.4752 29.7873C27.4599 29.9934 27.5317 30.1176 27.6937 30.1239C27.7945 30.1287 27.9213 29.995 27.9977 29.9069C28.508 29.3138 28.6257 28.3952 28.0283 27.9532C27.5286 27.582 26.2788 27.8588 25.935 28.3874C25.8831 28.1876 25.6356 27.8588 25.5164 27.7157C25.4003 27.5757 25.3712 27.4797 25.5301 27.357C25.605 27.2973 25.8342 27.0645 25.8342 26.8238C25.8342 26.6807 25.7272 26.418 25.3865 26.418C25.1176 26.418 24.8181 26.6099 24.8181 27.0377C24.8181 27.1321 24.841 27.2344 24.9006 27.3445C24.731 27.3161 24.2681 27.3272 24.0312 27.3869L27.3101 36.6519C28.2483 36.1752 28.9374 35.4202 28.9374 34.6085C28.9374 33.918 27.9488 34.1461 27.469 34.6856C27.3147 33.8095 27.1772 33.0009 27.0275 32.1956C26.9847 31.9722 27.0947 31.8936 27.2674 31.8259Z" fill="#162B5C"/>
<path d="M22.9367 25.4212C22.8541 25.2041 22.5562 25.3079 22.6295 25.5329L23.3186 27.5038C22.7289 27.6485 21.78 28.0906 21.78 28.6773C21.78 29.4575 23.1215 29.9671 23.8977 29.9058C23.8595 30.0835 23.9038 30.2424 24.0245 30.3871C23.7434 30.3871 23.2117 30.5224 23.0375 30.7159C22.6265 30.3211 21.9817 30.1779 21.6761 30.4186C21.369 30.6608 21.3599 31.0698 21.6807 31.5338C21.9038 31.8547 21.9878 32.1709 21.7372 32.5421C22.6723 32.5421 22.3285 31.29 22.6937 31.29C22.6463 31.5323 22.6754 31.8138 22.7823 32.1253C22.8526 32.3329 22.8526 32.4792 22.7319 32.679C22.4309 33.176 21.9603 34.3165 22.0245 35.3468C21.7174 35.3452 21.5615 35.2681 21.67 34.8371C21.7097 34.6767 21.6135 34.5618 21.4867 34.76C21.3461 34.9787 21.2773 35.3499 21.2773 35.5104C21.2773 36.429 22.3392 36.613 22.7457 36.4195C23.9191 37.5883 26.2232 37.2768 26.9948 36.8852L22.9367 25.4212ZM22.4874 34.974C22.4034 34.5021 23.0421 33.6589 23.8519 32.8441C23.6792 33.3742 23.7862 34.2881 24.1254 34.6027C23.5371 34.6043 22.8389 34.7191 22.4874 34.974Z" fill="#162B5C"/>
<path d="M8.19914 42.4016C8.57958 42.4834 8.98295 42.5274 9.40007 42.5274C11.2932 42.5274 12.9005 41.6292 13.4368 40.396C13.31 39.8392 13.2275 39.2666 13.2076 38.6783C13.2076 38.6736 13.2061 38.6704 13.2046 38.6657C13.2076 38.5839 13.1755 38.3118 13.1343 38.0664C12.9647 38.2567 12.7615 38.4266 12.5262 38.5572C12.5323 38.5871 12.5445 38.6138 12.5491 38.6437C12.6866 39.6787 11.8172 40.6713 10.6117 40.8585C10.4818 40.8789 10.352 40.8884 10.2251 40.8884C9.35271 40.8884 8.56736 40.4322 8.27553 39.7165C8.25108 39.6567 8.24039 39.5922 8.22358 39.5293C8.19914 39.5293 8.17316 39.5356 8.14871 39.5356C7.79424 39.5356 7.4581 39.4569 7.16016 39.3201C7.26558 40.0673 7.43518 40.794 7.71479 41.4609C7.85077 41.7913 8.01426 42.1043 8.19914 42.4016Z" fill="#162B5C"/>
<path d="M14.6852 43.3516C14.294 44.4763 13.0106 45.3304 11.4414 45.4594C12.9846 46.3764 14.5629 46.8357 15.4216 46.7901C15.3941 46.5196 15.7914 45.354 16.1336 45.0048C15.579 44.5297 15.0946 43.9713 14.6852 43.3516Z" fill="#162B5C"/>
<path d="M41.8852 38.0381C41.3764 37.7644 40.7485 37.9673 40.4811 38.4911C40.3512 38.7459 40.0792 38.8655 39.818 38.8167L40.4215 37.6275C40.7882 37.6323 41.1457 37.4341 41.326 37.077C41.5827 36.5705 41.3932 35.9444 40.9012 35.6786C40.4093 35.4143 39.8011 35.6094 39.5445 36.1159C39.3626 36.473 39.4085 36.8882 39.6209 37.1965L39.0173 38.3857C38.8294 38.1922 38.7683 37.8949 38.8982 37.6401C39.164 37.1163 38.9669 36.4698 38.4581 36.1945L35.1395 34.4076L35.0432 34.598C34.8125 35.0557 34.9302 35.6173 35.3244 35.935C35.1976 36.3581 35.3381 36.8174 35.6758 37.0911C35.5276 37.5835 35.743 38.1152 36.1861 38.3558L36.7713 38.6704C36.753 38.6751 36.7331 38.6736 36.7163 38.6783C36.4596 38.7554 36.2671 38.9127 36.1479 39.1486C35.8943 39.6473 36.2701 40.1648 36.8248 40.7389C36.6613 40.7484 36.507 40.7751 36.3588 40.8207C36.3588 40.8191 36.3572 40.8144 36.3557 40.8128C35.3733 40.9544 32.6933 40.3425 32.9531 39.9351C35.8897 35.6817 33.6437 33.1492 30.9438 33.2908V36.1474C30.9438 37.0644 30.1661 37.8084 29.2081 37.8084H27.3441C26.0072 37.8084 25.1363 39.1927 25.1363 39.1927C25.1363 39.1927 24.2654 37.8084 22.9284 37.8084H21.0644C20.1064 37.8084 19.3302 37.0644 19.3302 36.1474V33.2908C16.6304 33.1492 14.3813 35.6817 17.3195 39.9351C17.5639 40.3158 15.1086 40.9135 13.7503 40.8364C13.0429 42.1169 11.3591 43.0213 9.39726 43.0213C9.12071 43.0213 8.84874 43.0025 8.58594 42.9678C9.17724 43.7512 9.91216 44.4181 10.6899 44.9687C10.8014 44.9766 10.916 44.9813 11.0306 44.9813C12.7953 44.9813 14.2362 43.9887 14.3217 42.7461C14.282 42.6737 14.2407 42.6013 14.2025 42.5258C15.3286 41.84 17.1545 41.3681 18.6992 41.3681C18.9941 41.3681 19.1316 41.1117 19.0307 40.86C18.2729 38.9819 19.9032 37.6212 21.59 38.7286C22.3264 39.2115 23.0736 40.1632 23.6359 41.7504C20.8673 42.4409 17.3928 44.3411 16.69 46.4158C16.4195 47.2165 17.3134 48.3097 18.3997 48.5284C18.4196 48.5331 18.4394 48.5284 18.4562 48.5174C18.473 48.5064 18.4837 48.489 18.4883 48.4686C19.0552 45.3714 22.2913 43.0622 23.9751 42.6705C24.0591 42.9034 24.0316 42.8278 24.1171 43.0607C22.2837 43.9541 20.5052 45.837 19.9979 48.0754C19.7657 49.1009 20.8749 50.0243 21.7917 50.2775C21.8375 50.2901 21.8833 50.2571 21.8849 50.2115C22.0591 47.3801 23.2737 44.9766 24.3616 43.8833C24.3922 44.0973 24.4136 44.3112 24.4288 44.5267C24.4288 44.5267 23.315 47.7214 23.315 50.0526C23.315 51.1364 24.8811 51.8946 25.1118 52C25.4006 51.8946 26.9652 51.1364 26.9652 50.0526C26.9652 47.7214 25.8513 44.5267 25.8513 44.5267C25.8666 44.3112 25.8895 44.0957 25.9186 43.8833C27.0049 44.9766 28.2211 47.3801 28.3938 50.2115C28.3968 50.2571 28.4427 50.2917 28.487 50.2791C29.4052 50.0259 30.5145 49.1025 30.2823 48.0769C29.7735 45.8386 27.9965 43.9557 26.163 43.0622C26.2471 42.8294 26.2196 42.9049 26.3036 42.6721C27.9889 43.0638 31.2235 45.373 31.7903 48.4702C31.7949 48.4906 31.8056 48.5079 31.8224 48.5189C31.8392 48.5299 31.8591 48.5331 31.8789 48.5299C32.9638 48.3097 33.8606 47.2181 33.5871 46.4174C32.8858 44.3426 29.4098 42.4425 26.6413 41.7519C27.2051 40.1648 27.9522 39.2131 28.6887 38.7302C30.3755 37.6228 32.0058 38.9835 31.2479 40.8616C31.1471 41.1133 31.2846 41.3697 31.5795 41.3697C32.8079 41.3697 34.2197 41.667 35.3137 42.1342C35.2953 42.6989 35.5902 43.2997 36.1112 43.7559C36.1143 43.7606 36.1174 43.7669 36.1204 43.7716C36.1204 43.7716 36.1204 43.7732 36.1219 43.7732C35.662 43.866 35.2388 44.0485 34.9577 44.4465C34.6001 44.953 34.5513 45.7143 34.8049 46.7635L34.2579 48.3239C34.2304 48.4183 34.2716 48.5205 34.3572 48.5677C34.4428 48.6133 34.5482 48.5913 34.6078 48.5126L35.5413 47.1583C36.5207 46.7729 37.1013 46.2994 37.3015 45.708C37.4589 45.244 37.3626 44.7815 37.1747 44.3395C38.0914 44.6069 39.0021 44.3458 39.3611 43.6395C39.6132 43.144 39.5307 42.5447 39.2099 42.0146C39.9738 42.153 40.5941 42.1719 40.8478 41.6764C40.9669 41.442 40.9838 41.1904 40.8997 40.9277C40.8936 40.9104 40.8814 40.8931 40.8753 40.8758L41.462 41.1919C41.9066 41.4295 42.4521 41.3083 42.7622 40.9025C43.1733 41.0331 43.6194 40.8884 43.8853 40.5407C44.3635 40.6933 44.8799 40.4715 45.1137 40.0153L45.21 39.825L41.8852 38.0381ZM35.2342 45.8936C35.222 45.5255 35.3503 45.0363 35.4863 44.8429C35.5841 44.7044 35.7675 44.6022 35.9355 44.5314L35.2342 45.8936ZM36.6781 45.4846C36.6017 45.7111 36.2732 46.0965 35.9707 46.2963L36.6903 44.8979C36.7285 45.0757 36.7331 45.3258 36.6781 45.4846ZM37.8057 40.7751C37.7751 40.7452 37.7446 40.7137 37.714 40.6839C37.3947 40.3693 36.6445 39.6331 36.7331 39.4616C36.7682 39.3924 36.8187 39.3531 36.9012 39.3279C37.2572 39.221 37.9081 39.4679 38.3557 39.6929L37.8057 40.7751ZM40.2611 41.3634C40.174 41.5348 39.1579 41.3225 38.7255 41.2313C38.6858 41.2234 38.6445 41.214 38.6048 41.2061L39.1533 40.1254C39.5857 40.3756 40.1526 40.7845 40.2702 41.1463C40.2992 41.2281 40.2962 41.2942 40.2611 41.3634Z" fill="#162B5C"/>
</svg>
