<svg width="30" height="30" viewBox="0 0 30 24" fill="none" xmlns="http://www.w3.org/2000/svg">
<path d="M17.295 22.9237C16.23 24.1983 14.34 24.3632 13.065 23.2986C11.79 22.234 11.625 20.3446 12.69 19.07L18.69 10.0732C19.755 8.79861 21.645 8.63367 22.92 9.6983C24.195 10.7629 24.36 12.6523 23.295 13.9268L17.295 22.9237Z" fill="url(#paint0_linear_557_358)"/>
<path d="M27 23.9883C28.6569 23.9883 30 22.6457 30 20.9894C30 19.3331 28.6569 17.9904 27 17.9904C25.3431 17.9904 24 19.3331 24 20.9894C24 22.6457 25.3431 23.9883 27 23.9883Z" fill="url(#paint1_linear_557_358)"/>
<path d="M3 23.9883C4.65685 23.9883 6 22.6457 6 20.9894C6 19.3331 4.65685 17.9904 3 17.9904C1.34315 17.9904 0 19.3331 0 20.9894C0 22.6457 1.34315 23.9883 3 23.9883Z" fill="url(#paint2_linear_557_358)"/>
<path d="M11.295 13.9268C10.23 15.2014 8.34 15.3663 7.065 14.3017C5.79 13.2371 5.625 11.3477 6.69 10.0732L12.69 1.07629C13.755 -0.198272 15.645 -0.363214 16.92 0.701416C18.195 1.76605 18.36 3.65539 17.295 4.92995L11.295 13.9268Z" fill="url(#paint3_linear_557_358)"/>
<defs>
<linearGradient id="paint0_linear_557_358" x1="5.99991" y1="7.49406" x2="18.0001" y2="7.49406" gradientUnits="userSpaceOnUse">
<stop stop-color="#77A9F3"/>
<stop offset="1" stop-color="#1E6CE2"/>
</linearGradient>
<linearGradient id="paint1_linear_557_358" x1="5.99991" y1="7.49406" x2="18.0001" y2="7.49406" gradientUnits="userSpaceOnUse">
<stop stop-color="#77A9F3"/>
<stop offset="1" stop-color="#1E6CE2"/>
</linearGradient>
<linearGradient id="paint2_linear_557_358" x1="5.99991" y1="7.49406" x2="18.0001" y2="7.49406" gradientUnits="userSpaceOnUse">
<stop stop-color="#77A9F3"/>
<stop offset="1" stop-color="#1E6CE2"/>
</linearGradient>
<linearGradient id="paint3_linear_557_358" x1="5.99991" y1="7.49406" x2="18.0001" y2="7.49406" gradientUnits="userSpaceOnUse">
<stop stop-color="#77A9F3"/>
<stop offset="1" stop-color="#1E6CE2"/>
</linearGradient>
</defs>
</svg>
